<svg width="20" height="13" viewBox="0 0 20 13" fill="none" xmlns="http://www.w3.org/2000/svg">
<path d="M6.25 12.5C4.51667 12.5 3.04167 11.8917 1.825 10.675C0.608333 9.45833 0 7.98333 0 6.25C0 4.51667 0.608333 3.04167 1.825 1.825C3.04167 0.608333 4.51667 0 6.25 0H15.5C16.75 0 17.8125 0.4375 18.6875 1.3125C19.5625 2.1875 20 3.25 20 4.5C20 5.75 19.5625 6.8125 18.6875 7.6875C17.8125 8.5625 16.75 9 15.5 9H6.75C5.98333 9 5.33333 8.73333 4.8 8.2C4.26667 7.66667 4 7.01667 4 6.25C4 5.48333 4.26667 4.83333 4.8 4.3C5.33333 3.76667 5.98333 3.5 6.75 3.5H16V5.5H6.75C6.53333 5.5 6.35417 5.57083 6.2125 5.7125C6.07083 5.85417 6 6.03333 6 6.25C6 6.46667 6.07083 6.64583 6.2125 6.7875C6.35417 6.92917 6.53333 7 6.75 7H15.5C16.2 6.98333 16.7917 6.7375 17.275 6.2625C17.7583 5.7875 18 5.2 18 4.5C18 3.8 17.7583 3.20833 17.275 2.725C16.7917 2.24167 16.2 2 15.5 2H6.25C5.06667 1.98333 4.0625 2.39167 3.2375 3.225C2.4125 4.05833 2 5.06667 2 6.25C2 7.41667 2.4125 8.40833 3.2375 9.225C4.0625 10.0417 5.06667 10.4667 6.25 10.5H16V12.5H6.25V12.5" fill="white"/>
</svg>
